<svg width="80" height="80" viewBox="0 0 80 80" xmlns="http://www.w3.org/2000/svg">
  <!-- Base/Leaves -->
  <path d="M20 60 Q40 80 60 60 Q70 50 60 40 Q40 60 20 40 Q10 50 20 60" fill="#4CAF50" stroke="#2E7D32" stroke-width="2"/>
  <path d="M10 50 Q30 70 50 50" fill="none" stroke="#388E3C" stroke-width="2"/>
  
  <!-- Corn Body (Main Cob) -->
  <ellipse cx="40" cy="35" rx="15" ry="25" fill="#FFEB3B" stroke="#FBC02D" stroke-width="2"/>
  
  <!-- Kernels texture -->
  <circle cx="35" cy="25" r="3" fill="#FDD835"/>
  <circle cx="45" cy="25" r="3" fill="#FDD835"/>
  <circle cx="35" cy="35" r="3" fill="#FDD835"/>
  <circle cx="45" cy="35" r="3" fill="#FDD835"/>
  <circle cx="35" cy="45" r="3" fill="#FDD835"/>
  <circle cx="45" cy="45" r="3" fill="#FDD835"/>
  
  <!-- Gatling Barrels (Front) -->
  <rect x="32" y="10" width="4" height="15" fill="#5D4037" />
  <rect x="44" y="10" width="4" height="15" fill="#5D4037" />
  <rect x="38" y="5" width="4" height="20" fill="#3E2723" />
  
  <!-- Helmet/Goggles (Soldier look) -->
  <path d="M25 20 Q40 10 55 20 L55 25 Q40 15 25 25 Z" fill="#3E2723"/>
  <circle cx="32" cy="28" r="4" fill="#212121" stroke="#9E9E9E" stroke-width="1"/>
  <circle cx="48" cy="28" r="4" fill="#212121" stroke="#9E9E9E" stroke-width="1"/>
</svg>